/* XPM */
static char *nx16[]={
"16 16 246 2",
"aP c #0b355c",
"## c #0d345a",
"#g c #0f375d",
"#h c #10395f",
"aQ c #12395e",
"#Z c #133658",
"#R c #133a5d",
"#7 c #133a5e",
"#b c #133a5f",
"#Y c #143858",
"aA c #143a5d",
"al c #143a5e",
"ac c #15324f",
"#a c #153b60",
"#u c #163c61",
"aI c #173853",
"#I c #173b5f",
"#J c #173c60",
"#E c #173d5e",
"#v c #183e63",
"#q c #184064",
"aB c #193e60",
"am c #193e61",
"#8 c #1a3e61",
"#T c #1a4468",
"#D c #1b4163",
"#C c #1b4264",
"#S c #1c4064",
"#p c #1c4065",
"#o c #1c4164",
"#F c #20466a",
"#9 c #24547d",
"aC c #265279",
"#X c #295677",
"#U c #2b5072",
"aR c #2b5279",
"an c #2b5479",
"aJ c #305170",
"aY c #325575",
"au c #345d78",
"#i c #37638a",
"#f c #395a7a",
"ab c #397095",
"#H c #3a5b7a",
"#w c #3a668a",
"aX c #3a7096",
"#c c #3e628b",
"#K c #3e678c",
"#t c #3f6080",
"bp c #3f7899",
".W c #446281",
".3 c #456280",
".4 c #476483",
"af c #47728c",
".X c #496685",
"a. c #4986b2",
"bZ c #4b6980",
"aU c #4c89ac",
".Y c #4d6b8c",
"bJ c #4d748a",
"bq c #4d86a9",
"#2 c #4d8db3",
"bt c #4e768a",
"be c #4f768b",
"ah c #506e7e",
"#3 c #506e7f",
"a1 c #50788d",
"ax c #527588",
"aM c #52798f",
"aH c #5297be",
"#N c #53788c",
"bo c #538aaa",
"at c #538cac",
"bj c #5390b3",
"ad c #547a98",
".5 c #557799",
"ba c #55a5d0",
"aV c #56a4d4",
"aF c #58a9d9",
"#r c #597899",
"#z c #597f95",
"b# c #599cc2",
"a8 c #5a96bb",
"ar c #5aa2cd",
"ap c #5aa9d8",
"#l c #5b8096",
"a2 c #5bacda",
"aq c #5bacdb",
"as c #5c8bac",
".l c #5caada",
".k c #5cabd8",
".j c #5cacd9",
".m c #5cade0",
"bW c #5da4cd",
"bX c #5daad4",
"#4 c #5daada",
"#O c #5dabd9",
".h c #5dabda",
"ai c #5dabdb",
".f c #5dacd9",
".g c #5dacda",
"bu c #5dacdd",
".e c #5dadda",
".o c #5dadde",
"bK c #5db0de",
"Qt c #5db0e1",
".8 c #5e8197",
".T c #5e8397",
"bP c #5eaad4",
"bQ c #5eaad7",
".i c #5eabd9",
"aa c #5eabda",
".c c #5eacda",
".d c #5eadd9",
".b c #5eadda",
".# c #5eaddd",
".a c #5eaed8",
".E c #5faed9",
".D c #608397",
"bb c #6097be",
"bV c #60a5cd",
"bY c #60b0e1",
"aW c #60b1e2",
".2 c #617a98",
"bU c #62abd7",
"bR c #62afdd",
"aG c #62b0df",
"bN c #62b1de",
"bT c #62b1e0",
"bO c #63aed6",
"bS c #63b2e0",
"bL c #63b2e3",
"bM c #66b3e0",
"#. c #67829d",
"bk c #678598",
"#0 c #6892b3",
"ag c #6990a7",
"ae c #69a3c5",
"#n c #6c86a1",
"#B c #6d86a1",
"aO c #6d88a2",
"#Q c #6e87a1",
"#6 c #7088a3",
"ao c #7090a8",
"aT c #70a4c1",
"ak c #718aa4",
"az c #728aa3",
"bF c #7391a2",
"bG c #75909f",
"a9 c #768e9b",
".n c #7a9cab",
"br c #7a9cae",
"#W c #7ebadd",
"a6 c #80a1bd",
"a7 c #80adcd",
"a5 c #82a6c4",
"a# c #82c4eb",
"#G c #849ab8",
"#1 c #84bada",
".V c #8598b0",
"bI c #88b7d4",
"bz c #8aa3b0",
".Z c #8e9eb2",
"bs c #90b8d1",
"#V c #91b0c5",
"aE c #91bed9",
"av c #949ba0",
"bH c #94aab6",
"aS c #94afc1",
".p c #98afbe",
"bE c #98b0be",
"b. c #99a9b4",
"aw c #99bcd1",
"bd c #99c2db",
"aD c #9ba1ab",
"bn c #a1b7c2",
"a0 c #a2cde6",
"aL c #a4cce3",
"bc c #a5b5bf",
".F c #a6bcca",
".q c #a7bcca",
"#M c #a7cfe5",
"by c #a9c1cf",
"bi c #a9cddf",
".C c #a9cee4",
"bA c #abb9c3",
".r c #abbfca",
"a4 c #aec5da",
"#d c #afb8c1",
".s c #afc3ce",
".U c #b0c3d0",
"aK c #b2babc",
"aZ c #b5bdc3",
".t c #b5c7d2",
".9 c #b6c8d4",
".G c #bcc8d1",
".u c #bccad6",
"#m c #bccbd6",
".H c #bdc5cb",
".J c #bfc7cc",
".v c #bfcdd6",
"bD c #bfcfd9",
"#s c #c0c4cd",
"#A c #c0cfd8",
".I c #c1c9cf",
"#y c #c2e2f4",
".w c #c4d1d8",
"bl c #c5c6c6",
"#P c #c5d2dc",
"#k c #c6e7f9",
"bB c #c7d5dc",
"bv c #c8d8e1",
".7 c #c8e8fa",
".S c #c9e8fb",
"#L c #cbd1d5",
"#5 c #cbd6df",
".x c #cbd7de",
"bC c #cbdce7",
".K c #ced5d8",
"bm c #cfd2d4",
"aj c #cfd9e1",
".Q c #d0d0d3",
".y c #d0dae0",
".z c #d2dbe0",
"a3 c #d2dbe1",
"ay c #d2dde3",
".A c #d4dde1",
"bf c #d4dde2",
".O c #d5d6d9",
"aN c #d6dee4",
".N c #d7d8dd",
".P c #d8d8db",
".B c #d8dee1",
"#x c #dcdbdb",
".6 c #e0dfe0",
"#j c #e1e0e1",
"bx c #e3edf5",
".0 c #e5e8e7",
".1 c #e8eff6",
".L c #eaf0f6",
"#e c #ebf0f4",
".M c #eceff3",
"bw c #eff7fc",
".R c #f5f1ef",
"bh c #fffffd",
"bg c #ffffff",
"Qt.#.a.b.c.d.e.f.g.h.i.j.k.l.m.n",
".o.p.q.r.s.t.u.v.w.x.y.z.A.B.C.D",
".E.F.G.H.I.J.K.L.M.N.O.P.Q.R.S.T",
".b.U.V.W.X.Y.Z.0.1.2.3.4.5.6.7.8",
".c.9#.###a#b#c#d#e#f#g#h#i#j#k#l",
".c#m#n#b#o#p#q#r#s#t#u#v#w#x#y#z",
".g#A#B#b#C#D#E#F#G#H#I#J#K#L#M#N",
"#O#P#Q#R#S#T#U#V#W#X#Y#Z#0#1#2#3",
"#4#5#6#7#8#9a.a#aaabacadaeafagah",
"aiajakalamanaoapaqarasatauavawax",
".gayazaAaBaCaDaEaFaGaHaIaJaKaLaM",
"aqaNaOaPaQaRaSaTaUaVaWaXaYaZa0a1",
"a2a3a4a5a6a7a8a9b.b#baaGbbbcbdbe",
"#Obfbgbhbibjbkblbmbnbobpbqbrbsbt",
"bubvbwbxbybzbAbBbCbDbEbFbGbHbIbJ",
"bKbLbMbNbObPbQbRbSbTbUbVbWbXbYbZ"};
