/* XPM */
static char *nx32[]={
"32 32 910 2",
"by c #062f53",
"bn c #0d3253",
"cO c #0e385a",
"hy c #102b43",
"ib c #10395c",
"fW c #112f4a",
"bp c #11375e",
"cn c #113a59",
"bo c #12395f",
"bA c #123a5b",
"eP c #123a5e",
"df c #123a5f",
"dw c #123b5f",
"cI c #124261",
"h1 c #132f4a",
"iu c #133353",
"bY c #13395c",
"cE c #133a5f",
"g. c #133a60",
"fJ c #133a61",
"bN c #133b5d",
"bz c #133b5e",
"cd c #133c5f",
"dF c #133d5d",
"fV c #142d49",
"dK c #14355b",
"fu c #143858",
"bB c #14385e",
"hL c #143b5e",
"hl c #143b60",
"gx c #143b61",
"bC c #143b62",
"fs c #153254",
"hz c #153455",
"d9 c #153759",
"ig c #153a61",
"d4 c #153b58",
"cg c #153c5e",
"e4 c #16395b",
"ey c #163b59",
"eU c #163b61",
"eC c #163e5e",
"e# c #163f62",
"eA c #164060",
"ie c #164163",
"hO c #164167",
"h# c #173654",
"ft c #173959",
"ez c #173d59",
"eq c #174164",
"g# c #174265",
"gy c #174266",
"ec c #17436c",
"e2 c #183756",
"bQ c #183b5e",
"e3 c #183d60",
"fL c #184265",
"fi c #184367",
"h2 c #193453",
"id c #193c62",
"e. c #193d5e",
"eD c #193e61",
"d3 c #193f62",
"dj c #193f64",
"fh c #193f65",
"co c #194162",
"cf c #194164",
"b2 c #194168",
"dP c #194269",
"dC c #194363",
"b3 c #19446b",
"d5 c #1a385e",
"hx c #1a3d57",
"ic c #1a3d5e",
"dO c #1a3e61",
"dg c #1a3e64",
"eb c #1a3f60",
"eR c #1a3f64",
"cr c #1a3f65",
"cq c #1a4062",
"eQ c #1a4162",
"dA c #1a4163",
"d1 c #1a4164",
"b1 c #1a4165",
"ff c #1a4263",
"dM c #1a4265",
"cP c #1a4365",
"cs c #1a4468",
"eS c #1a4569",
"e1 c #1b3858",
"hN c #1b3f63",
"bZ c #1b3f64",
"dN c #1b4062",
"fg c #1b4063",
"ce c #1b4065",
"cQ c #1b4066",
"c5 c #1b4163",
"c4 c #1b4164",
"cF c #1b4165",
"ep c #1b4166",
"d2 c #1b4260",
"dz c #1b4265",
"dx c #1b4266",
"dy c #1b4366",
"cS c #1b4469",
"cR c #1c3f62",
"d# c #1c405d",
"d. c #1c4067",
"c9 c #1c4068",
"cH c #1c4163",
"eo c #1c4164",
"fK c #1c4165",
"c6 c #1c4263",
"cp c #1c4266",
"dD c #1c4267",
"da c #1c486c",
"er c #1d3c61",
"dL c #1d3d64",
"dE c #1d4060",
"es c #1d4061",
"c8 c #1d4062",
"bO c #1d4064",
"cG c #1d4065",
"dB c #1d4163",
"bP c #1d4165",
"b0 c #1d416a",
"c7 c #1d4263",
"dk c #1d4569",
"iH c #1d5083",
"if c #1e3857",
"dh c #1e4065",
"hM c #1e4161",
"di c #1e4165",
"ea c #1f3e61",
"eB c #203d63",
"h. c #204055",
"iK c #205582",
"fr c #214764",
"iJ c #215787",
"iI c #225780",
"gM c #23516c",
"iL c #24517b",
"gj c #26415c",
"eT c #26557b",
"bq c #27496a",
"bR c #27537e",
"dG c #2b5481",
"fv c #2c4866",
"e5 c #2c4d68",
"fk c #2c6592",
"iM c #2d597c",
"g9 c #2f5b75",
"fz c #2f6282",
"ha c #315d83",
"f1 c #326382",
"iv c #32678f",
"jJ c #326c90",
"go c #336381",
"hA c #336491",
"h3 c #336994",
"gL c #336b88",
"iQ c #336c88",
"jj c #336d91",
"gN c #355775",
"i1 c #356486",
"fU c #366f94",
"fj c #3776a7",
"fX c #385a73",
"kn c #386d8b",
"ch c #396392",
"kR c #396983",
"f. c #396c88",
"km c #397090",
"it c #397195",
"dQ c #3971a1",
"kb c #397394",
"e9 c #397599",
"kq c #397995",
"bD c #3a73a5",
"gn c #3a7899",
"ih c #3b6a98",
"ex c #3b7596",
"hP c #3c6fa0",
"fM c #3c75a5",
"il c #3c779e",
"kF c #3d6a81",
"kp c #3d7298",
"cT c #3d77a7",
"fA c #3e657e",
"kS c #3e667b",
"gY c #3e71a0",
"hm c #3e72a2",
"b4 c #3e78a9",
"ga c #3f729f",
"ct c #3f77a7",
"kE c #406d85",
"ml c #414d5a",
"kl c #427da4",
"gz c #43709b",
"i0 c #43749f",
"ko c #437592",
"e0 c #43789e",
"h0 c #437ca5",
"fO c #438ebe",
"fN c #4484b2",
"b. c #456486",
"aZ c #456585",
"g8 c #4688ad",
"f2 c #47697d",
"kc c #47738f",
"hV c #4788ad",
"f0 c #478cb3",
"lq c #48616a",
"f# c #488db8",
"hU c #4890bc",
"jR c #4892be",
"kD c #497994",
"im c #497a8f",
"fy c #498fb9",
"fC c #4992bb",
"l5 c #49a3d3",
"a1 c #4a6887",
"kQ c #4b728d",
"ed c #4b7fae",
"jT c #4b8eb1",
"jS c #4b8eb3",
"in c #4b8eb6",
"f5 c #4b96c4",
"fp c #4b9ccc",
"kZ c #4c606b",
"bc c #4c6989",
"a0 c #4c6a8a",
"bd c #4c6d8f",
"ka c #4c8eb7",
"lU c #4d5d69",
"b# c #4d6889",
"ba c #4d698a",
"bb c #4d6b86",
"kT c #4d6c80",
"eJ c #4d94c2",
"jp c #4d97c6",
"j2 c #4e626b",
"l6 c #4ea5d6",
"jA c #4f636c",
"gk c #4f6e8b",
"be c #4f85b3",
"hw c #4f8fb6",
"jq c #4f99c2",
"i7 c #50646d",
"gc c #508cb6",
"hv c #509ac4",
"hs c #50a0d3",
"l4 c #50a3d1",
"gp c #51606e",
"iB c #51656e",
"eI c #5196be",
"jU c #5199bf",
"gt c #519ece",
"gh c #519fd0",
"l3 c #51a4d1",
"l0 c #51abde",
"eK c #52636a",
"h8 c #526771",
"cJ c #5279a4",
"fq c #5295b7",
"ji c #5299c7",
"fS c #52a0d0",
"l2 c #52a7d3",
"l1 c #52a9d8",
"fD c #535f63",
"f6 c #535f65",
"hG c #536972",
"e8 c #5394bd",
"gi c #5494c1",
"me c #54a1ce",
"mf c #54a2cf",
"l7 c #54a5d8",
"mi c #54abda",
".3 c #54b3e4",
"hg c #556871",
"d8 c #557c9c",
"hW c #559dc7",
"ei c #55a0d1",
"iV c #55a1cb",
"gS c #55a6d6",
"dV c #55a6d9",
"gD c #55a7d7",
"l8 c #55a8db",
"lZ c #55abdc",
"#V c #55ade3",
"gu c #56646a",
"gT c #56686e",
"iU c #569cca",
"fT c #56a2cb",
"md c #56a2cf",
"gG c #56a6d2",
"mg c #56a6d4",
"dp c #56abde",
"lX c #56abe3",
"l9 c #56acdd",
"ku c #56addf",
"lW c #56ade2",
"ap c #56b0e4",
"h9 c #56b2e8",
"iC c #56b4e9",
"ej c #57686e",
"gK c #5795b7",
"iP c #579fc6",
"gC c #57a2d1",
"mb c #57a6d5",
"ma c #57a9dc",
"mh c #57aad5",
"m. c #57adde",
"m# c #57addf",
"j1 c #57aee0",
"cY c #57aee1",
"aS c #57afe2",
".z c #57b0e5",
".a c #57b1e2",
"d6 c #5879a3",
"mc c #58a4d1",
"hf c #58a9de",
"hY c #58aad7",
"lY c #58acda",
"b9 c #58ade0",
"cy c #58aee1",
"lp c #58aee2",
"i6 c #58afe1",
"i8 c #58b1e4",
".b c #58b4e9",
"dW c #596d76",
"hX c #59ace0",
"gE c #59addc",
"bH c #59ade1",
"bi c #59aee1",
"iA c #59b0e1",
"#v c #59b0e2",
"j3 c #59b1e4",
"cZ c #59b1e5",
".i c #59b3e3",
"eV c #5a809e",
"io c #5aa0cd",
"jI c #5aa1c2",
"ip c #5aacdb",
"kY c #5aace0",
"hF c #5aaee1",
"fa c #5ab0e3",
"fE c #5ab0e7",
".k c #5ab1e3",
".l c #5ab1e4",
"k0 c #5ab1ed",
".d c #5ab2e2",
"ar c #5ab2e3",
".f c #5ab2e4",
".e c #5ab2e5",
"dr c #5ab2e6",
".h c #5ab3e3",
"gg c #5ba3d2",
"hu c #5ba8db",
"jr c #5babd2",
"mj c #5bacdf",
"gd c #5bafe1",
"lr c #5bb0e1",
".u c #5bb0e3",
".v c #5bb0e7",
".s c #5bb1e3",
".g c #5bb1e4",
"#x c #5bb1e8",
".c c #5bb2dd",
"aU c #5bb2e3",
".n c #5bb2e4",
".j c #5bb2e5",
"gU c #5bb2e6",
"#X c #5bb3de",
".1 c #5bb3e2",
"hH c #5bb3e7",
"kk c #5c92b1",
"eZ c #5ca2d5",
"iW c #5cabd7",
"fR c #5cabdc",
".p c #5cb1e4",
".o c #5cb1e5",
".q c #5cb2e2",
".t c #5cb2e5",
"kv c #5cb2e6",
".m c #5cb2e7",
".x c #5cb3e1",
".r c #5cb3e3",
"cz c #5cb3e5",
"dq c #5d7079",
"et c #5d7a92",
"g2 c #5da7d2",
"gf c #5daedf",
".w c #5dafe5",
"ge c #5db0e1",
"jB c #5db1e3",
"g4 c #5db3e4",
"jQ c #5e9aba",
"iq c #5eb0e4",
"lV c #5eb1db",
"Qt c #5eb2de",
"a2 c #5f84ae",
"iT c #5f91b1",
"gF c #5facd3",
".# c #5face5",
"mk c #5fade0",
"lT c #5fafe1",
"iX c #5fb0e0",
"jo c #609abb",
"hZ c #60aede",
"bx c #617e9e",
"jV c #61abde",
"jt c #61b4e5",
"c. c #62737c",
"iR c #627c8b",
"ht c #62a8d9",
"g3 c #62b2e0",
"ir c #62b3e4",
"dJ c #637e98",
"bI c #64747e",
"de c #64839b",
"ik c #64a8cd",
"ls c #64aad5",
"bj c #65747e",
"gm c #65a9cf",
"js c #65b2df",
"g5 c #65b3df",
"is c #65b3e1",
"jK c #667d8f",
"cm c #66819c",
"fl c #6697ba",
"jv c #669dc3",
"hr c #66b2de",
".2 c #67747a",
"aq c #67777d",
"bX c #677e9e",
"kr c #678fa2",
"g7 c #67b0d6",
"gH c #67b6e2",
"#W c #68787f",
"fB c #68889a",
"db c #6889b5",
"br c #688abe",
"kP c #688ea2",
"k# c #68acd3",
"fo c #68b1db",
"ju c #68b7e9",
"iY c #68b9e2",
"aT c #69747c",
"cN c #6983a3",
"gb c #6a7f91",
"iZ c #6ab3e1",
"gO c #6b6f77",
"#w c #6b777f",
".A c #6ba8db",
"fQ c #6bb6e2",
".Z c #6ca1c0",
".V c #6da2c0",
".O c #6da2c3",
"jX c #6daccd",
"g6 c #6dbceb",
"eE c #6e9bc2",
".Q c #6ea2c4",
".L c #6ea3c0",
".0 c #6ea5cb",
"fP c #6eb8e3",
"jk c #6f848e",
"ia c #6f8ba4",
"iG c #6f91b8",
"lO c #6fa1bf",
".W c #6fa2c1",
".X c #6fa2c2",
"lP c #6fa3c2",
".U c #6fa4c2",
".E c #6fa4c5",
".K c #6fa5c2",
"bm c #7088a4",
"dH c #7089b2",
"hK c #708ba4",
"hk c #708ba6",
"bM c #708ca7",
"f9 c #708ca8",
"c# c #70a1c0",
"j4 c #70a1c2",
"jC c #70a2c0",
".S c #70a2c2",
".N c #70a3bf",
".T c #70a3c3",
".Y c #70a3c4",
".M c #70a4c0",
".D c #70a4c3",
".C c #70a5c3",
"as c #70a5c5",
".P c #70a5c7",
"kU c #718a99",
"kG c #718b9f",
"fI c #718ca8",
"i9 c #71a1c0",
"hh c #71a2be",
"gV c #71a3bf",
"fF c #71a3c0",
".H c #71a3c1",
".F c #71a3c2",
".R c #71a3c5",
".G c #71a4c1",
"#Y c #71a5c3",
".J c #71a6c2",
"jW c #71b7e8",
"hb c #727a7f",
"cD c #728ba9",
"d0 c #728ca8",
"dv c #728ca9",
"cc c #728eaa",
"kC c #72a0b8",
"iD c #72a1be",
"ek c #72a1bf",
"ds c #72a2c1",
"c0 c #72a2c2",
"dX c #72a3c1",
"aV c #72a3c3",
"kw c #72a5c1",
"gI c #72a9c9",
"lS c #72b3da",
"eH c #72b9e4",
"ew c #72bfe0",
"eO c #738aa6",
"en c #738ba7",
"c3 c #738ca9",
"eL c #73a1bf",
"k1 c #73a2be",
"fb c #73a2c0",
".I c #73a3c1",
"cA c #73a3c2",
"bJ c #73a4c4",
".B c #73a5c1",
"fe c #748ba7",
"lQ c #74aacb",
".4 c #75a4c1",
"#y c #76a2c4",
"lN c #76a8c5",
"bS c #7791be",
"lR c #77b1d2",
"g1 c #78a8c5",
"hT c #78b6dc",
"hQ c #798085",
"hq c #79b8df",
"gJ c #7ab4d9",
"lM c #7bafcd",
"hB c #7c8687",
"hn c #7d8692",
"i2 c #7e898c",
"lC c #7eb1cd",
"iw c #7f868e",
"gZ c #7f8895",
"h4 c #80868b",
"lL c #80b6d6",
"jY c #81a9c3",
"gA c #82848b",
"a9 c #8298b7",
"lD c #82b3d0",
"lB c #82b4ce",
"iN c #83a7c9",
"lK c #84bcdc",
"fw c #85a8be",
"dR c #86898d",
"ci c #869abf",
"gB c #86a4b7",
"fZ c #86c4e4",
"a3 c #8899b2",
"lE c #88b6d5",
"lA c #88bad4",
"lJ c #88c0e0",
"cK c #8a98b0",
"lF c #8abedd",
"gl c #8bbcdf",
"e7 c #8bc2e5",
"dc c #8c99a2",
"f3 c #8c9aa0",
"lG c #8cc2e2",
"lI c #8cc4e4",
"b5 c #8d949c",
"dl c #8d959b",
"cU c #8d969e",
"bs c #8d9aa9",
"aY c #8da1c0",
"fx c #8dcaed",
"e6 c #8ebfe1",
"bf c #8f9398",
"bE c #8f98a1",
".y c #8f9fa2",
"lz c #8fc0da",
"lH c #8fc2e4",
"lj c #909da5",
"cu c #91979b",
"jf c #91b3d1",
"lk c #92a1a9",
"ii c #92a3b0",
"lt c #92c4e3",
"li c #93a0a7",
"f4 c #93a9b6",
"fY c #93b9d4",
"d7 c #94b9d6",
"ly c #94c6e1",
"eY c #94caf2",
"kX c #95b7cb",
"bT c #969b9e",
"jw c #96a7b4",
"fn c #96caed",
"fm c #96d0f1",
"aP c #97989d",
"aC c #979fa0",
"iS c #979fa7",
"ee c #97a1aa",
"lo c #97b8cd",
"kV c #98a8b1",
"kt c #98b9cc",
"iO c #98c9eb",
"lx c #98cce9",
"gq c #99a3aa",
"lw c #9aceea",
"jn c #9baab4",
"gs c #9bb4c3",
"j0 c #9bbcd0",
"lv c #9bcfe8",
"jH c #9bd2f7",
"kO c #9cb0bc",
"k. c #9ccde4",
"lh c #9dabb4",
"ll c #9dacb3",
"kj c #9db3bd",
"je c #9dbcd7",
"eh c #9dc4d5",
"jh c #9dd0ec",
"aB c #9fabb7",
"lu c #9fcfee",
"eG c #9fd2ef",
"cj c #a0a7a9",
"lm c #a0b1b8",
"jz c #a0c1d5",
"jd c #a0c3e3",
"jc c #a0c7e3",
"jb c #a1c3e0",
"aO c #a2afbc",
"jP c #a2b2bc",
"jg c #a2c6de",
"ks c #a3b0bc",
"kd c #a4a9a9",
"gR c #a4bfcf",
"i5 c #a4c6d9",
"ev c #a4cfe2",
"kW c #a6b4bb",
"eu c #a7bdd1",
"ij c #a7d0e3",
"iz c #a8c9dd",
"a4 c #aaabaf",
".5 c #aaafac",
"ln c #aab9c0",
"he c #aac8d9",
"jl c #abb1b4",
"jZ c #abb9c6",
"h7 c #abccdf",
"dI c #acaabd",
"lg c #acb7c0",
"hE c #acccde",
"gr c #adb6b9",
"#Z c #adbcc9",
"jx c #adbdc3",
"#2 c #aeb9bc",
"gP c #afb9bd",
"ja c #b0cadf",
"#z c #b1b9bf",
".7 c #b1b9c8",
"jm c #b2b4b9",
".6 c #b2bbc1",
"cL c #b3b4b6",
"#1 c #b3c0ce",
"at c #b4bdc6",
"aw c #b4bec8",
"aW c #b4c0c7",
"hp c #b4c8d4",
"jL c #b5b5ba",
"#3 c #b5bbbe",
"aK c #b5bbc7",
".8 c #b5bcc5",
"aM c #b5bcc6",
"aJ c #b5bcc9",
"ay c #b5bdc9",
"ax c #b5bdca",
"az c #b5beca",
".9 c #b5bfc3",
"bk c #b5c1c6",
"#A c #b5cdd8",
"#0 c #b5cfdb",
"#4 c #b7bdc0",
"aL c #b7bdc8",
"aN c #b7bfcc",
"hS c #b7d6ea",
"#5 c #b8bec1",
"aA c #b8bfc9",
"aI c #b8bfcc",
"#. c #b8c2c6",
"jy c #b8c3ca",
"bK c #b8c4c8",
"#B c #b8cddb",
"#8 c #b9bfc3",
"kH c #b9bfc7",
"jM c #b9c0c4",
"#6 c #babfc3",
"## c #bac3c8",
"gQ c #bac4c8",
"av c #bbbecb",
"i3 c #bbc9d1",
"#7 c #bcc0c2",
"kN c #bcc5ca",
"hc c #bcc7c8",
"#a c #bdc5c9",
"eW c #bde5f2",
"ke c #bebfc2",
"jN c #bec5c7",
"ca c #bec7cb",
"dU c #bed4e1",
"lf c #bfc6cb",
"#b c #bfc8cc",
"i4 c #bfccd6",
"k8 c #c0c2c3",
"au c #c0cbd1",
"eF c #c0dff5",
"bt c #c1c3bb",
"ki c #c1c6c8",
"cB c #c1c9cb",
"eg c #c1d9e4",
"jO c #c2c4c3",
"kf c #c2cdcd",
"hd c #c2d0d5",
"#C c #c2d2d6",
"#D c #c2d4de",
"k7 c #c3c4c3",
"c1 c #c3cacc",
"dd c #c4c2cb",
"#c c #c4c8cf",
"hR c #c5c5c3",
"g0 c #c5c7ca",
"dt c #c5ccce",
"#u c #c5d5df",
"#E c #c5d7e2",
"eX c #c5e6f6",
"k9 c #c6c5c6",
"ix c #c6d0d8",
"iy c #c6d4de",
"ae c #c7c8ca",
"#9 c #c7d0d7",
"do c #c7deec",
"#d c #c8c8d2",
"dY c #c8cfd0",
"hC c #c8cfd1",
"h5 c #c8d4db",
"jG c #c8e3f4",
"kI c #c9cccd",
"kh c #c9d1d5",
"kM c #c9d3da",
"h6 c #c9d9e1",
"#F c #c9dae4",
"ho c #cac6c4",
"hD c #cad6db",
"ag c #cbcdcd",
"af c #cccdcf",
"el c #ccd1d3",
"le c #ccd1d4",
"#G c #ccdde6",
"ah c #cdcdce",
"#e c #cdcdd4",
"aX c #cdd8e6",
"ai c #cecdd0",
"aj c #cececf",
"k6 c #cecfd2",
"#f c #cecfd4",
"ef c #cedee5",
"cX c #cee5f0",
"ak c #cfcece",
"al c #cfd0ce",
"eM c #cfd4d5",
"#H c #cfe0e9",
"kg c #d0d2d7",
"kJ c #d0d7d8",
"bl c #d0ddea",
"cx c #d0e7f3",
"l. c #d1d0cf",
"#g c #d1d2d5",
"bL c #d1dfeb",
"b8 c #d1e8f4",
"fc c #d2d6d7",
"kL c #d2dde5",
"#h c #d3d3d5",
"bG c #d3e8f4",
"bU c #d5d9d8",
"aD c #d5d9dd",
"kK c #d5dde3",
"cb c #d5e0eb",
"bh c #d5eaf6",
"#i c #d6d6d6",
"ad c #d6d8da",
"l# c #d6dbd8",
"#I c #d6e4eb",
"ao c #d6e8f4",
"aR c #d6eaf7",
"#j c #d7d7d6",
"fG c #d7d8d7",
"ld c #d7dbdf",
"kB c #d7e9f4",
"f7 c #d9d9d9",
"#k c #d9dad8",
"cC c #d9e2ed",
"#J c #dae5eb",
"#U c #daeefa",
"gv c #dbdbda",
"la c #dbe2e2",
"#K c #dbe6eb",
"#l c #dddcd9",
"gW c #dddedd",
"lc c #dde3e9",
"c2 c #dde4ef",
"du c #dee6f1",
"hi c #dfe0de",
"#m c #e0dddc",
"#n c #e0dedc",
"dZ c #e0e9f2",
"#o c #e1dfdb",
"hI c #e1e1e0",
"jD c #e1e3e1",
"lb c #e1e4ea",
"a. c #e1e8ef",
"#L c #e1ebf0",
"#M c #e1ecee",
"a# c #e2e9f1",
"k5 c #e3e1e4",
"aH c #e3e6ee",
"em c #e3ebf4",
"#p c #e4e2de",
"j5 c #e4e4e3",
"j. c #e5e3e1",
"aa c #e5ecf3",
"#q c #e6e2de",
"#r c #e6e4dd",
"dT c #e6e5e5",
"dS c #e6e6e5",
"a5 c #e6ecf1",
"eN c #e6edf6",
"i. c #e7e1df",
"#s c #e7e3dd",
"aE c #e7eef3",
"#N c #e7f1f2",
"iE c #e8e1de",
"ab c #e8eef5",
"j9 c #e8f0f2",
"#t c #e9e5df",
"kx c #e9e5e2",
"ck c #e9edea",
"cM c #e9eef8",
"a8 c #e9eff7",
"fd c #e9eff9",
"bw c #e9f4fd",
"aF c #eaeef2",
"#O c #ebf0f4",
"jF c #ebf1eb",
"a6 c #ecf2f3",
"fH c #eef0fa",
"ac c #eef1f4",
"aG c #eef3f7",
"bu c #eef5f4",
"j# c #eef6f9",
"dm c #f0f2f4",
"f8 c #f0f2fb",
"a7 c #f0f4f8",
"bW c #f0f4fc",
"k2 c #f1e7e0",
"gw c #f2f4fc",
"dn c #f3f2f3",
"cl c #f3f7fd",
"iF c #f3f8ff",
"gX c #f4f6fe",
"#P c #f4f8fc",
"k4 c #f5f1f3",
"bv c #f5f6fb",
"cV c #f6f8f8",
"hj c #f6f8ff",
"hJ c #f6f9ff",
"#Q c #f7fafd",
"i# c #f9fbff",
"bV c #f9fcfb",
"cW c #fafaf9",
"#R c #fafdff",
"kA c #fbf9f7",
"aQ c #fbfcfd",
"#S c #fbfdff",
"j8 c #fcf7f5",
"cv c #fcfaf7",
"am c #fcfcfb",
"kz c #fcfcfc",
"bF c #fcfcfd",
"cw c #fdfbfa",
"b6 c #fdfcfc",
"j6 c #fdfffe",
"b7 c #fefefd",
"j7 c #fefeff",
"k3 c #fff9fa",
"jE c #fffaf6",
"bg c #fffdfd",
"ky c #fffeff",
"an c #fffffe",
"#T c #ffffff",
"Qt.#.a.b.c.d.e.e.f.g.g.h.i.j.k.l.m.n.k.o.p.q.r.n.k.s.t.u.v.w.x.y",
".z.A.B.C.D.E.F.F.G.H.I.J.K.L.G.M.N.O.P.Q.R.S.T.U.V.W.X.Y.Z.0.1.2",
".3.4.5.6.7.8.9#.###a#b#c#d#e#f#g#h#i#j#k#l#m#n#o#p#q#r#s#t#u#v#w",
"#x#y#z#A#B#C#D#E#F#G#H#I#J#K#L#M#N#O#P#Q#R#S#T#T#T#T#T#T#T#U#V#W",
"#X#Y#Z#0#1#2#3#4#5#6#7#8#9a.a#aaabacadaeafagahaiajakalamanaoapaq",
"arasatauavawaxayazazaAaBaCaDaEaFaGaHaIaJaKaLaMaJaNaOaPaQ#TaRaSaT",
"aUaVaWaXaYaZa0a0a0a0a1a2a3a4a5a6a7a8a9b.b#babbbcbdbebfbg#Tbhbibj",
".naVbkblbmbnbobobobobpbqbrbsbtbubvbwbxbybzbpbAbBbCbDbEbF#TbGbHbI",
".lbJbKbLbMbNbObObObObPbQbRbSbTbUbVbWbXbYbZb0b1b2b3b4b5b6b7b8b9c.",
".gc#cacbcccdcecececececfcgchcicjckclcmcncocpcqcrcsctcucvcwcxcyc.",
"czcAcBcCcDcEcFcFcFcFcFcGcHcIcJcKcLcMcNcOcPcQcRcecScTcUcVcWcXcYc.",
"cZc0c1c2c3cdc4c5c6c7c8c9d.d#dadbdcdddedfdgdhdidjdkcTdldmdndodpdq",
"drdsdtdudvdwdxdydzdAdBdCdDdEdFdGdHdIdJdKdLdMdNdOdPdQdRdSdTdUdVdW",
".fdXdYdZd0cEd1c4c4d1dzd2d3cod4d5d6d7d8d9e.e#eaebecedeeefegeheiej",
".fekelemenbzd1eobOepeqbZereseteuevewexeyezeAeBeCeDeEeFeGeHeIeJeK",
".feLeMeNeOePeQbPcGeReSeTeUeVeWeXeYeZe0e1e2eCe3e4e5e6e7e8e9f.f#eK",
"fafbfcfdfebNfffgdhfhfifjfkflfmfnfofpfqfrfsftfufvfwfxfyfzfAfBfCfD",
"fEfFfGfHfIfJfKdBd1cRfLfMfNfOfPfQfRfSfTfUfVfWfXfYfZf0f1f2f3f4f5f6",
"fEfFf7f8f9g.fKdBd1cRg#gagbgcgdgegfggghgigjgkglgmgngogpgqgrgsgtgu",
"#xfFgvgwbMgxfKdBd1cRgygzgAgBgCgDgEgFgGgHgIgJgKgLgMgNgOgPgQgRgSgT",
"gUgVgWgXbMgxfKdBd1cRg#gYgZg0g1g2g3g4g5g6g7g8g9h.h#hahbhchdhehfhg",
"gUhhhihjhkhlfKdBd1cRfLhmhnhohphqhrhshthuhvhwhxhyhzhAhBhChDhEhFhG",
"hHhhhIhJhKhLbPhMdzhNhOhPhQhRhShThUhVhWhXhYhZh0h1h2h3h4h5h6h7#vh8",
"h9eki.i#iaibicidieifigihiiijikiliminioipiqirisitiuiviwixiyiziAiB",
"iCiDiEiFiGiHiIiJiKiLiMiNiOiPiQiRiSiTiUiViWiXiYiZi0i1i2i3i4i5i6i7",
"i8i9j.j#jajbjcjdjejfjgjhjijjjkjljmjnjojpjqjrjsjtjujvjwjxjyjzi6jA",
"jBjCjD#Tan#T#TjEjFjGjHjIjJjKjLjMjNjOjPjQjRjSjTjUjVjWjXjYjZj0j1j2",
"j3j4j5#Tj6j7j8j9k.k#kakbkckdkekfkgkhkikjkkklkmknkokpkqkrksktkuj2",
"kvkwkx#TkykzkAkBkCkDkEkFkGkHkIkJkKkLkMkNkOkPkQkRkSkTkUkVkWkXkYkZ",
"k0k1k2#T#Tank3k4k5k6k7k8k9l.l#lalblcldlelflglhliljlklllmlnlolplq",
"lrlsltlulvlwlxlylzlAlBlClDlElFlGlHlIlJlKlLlMlN.MlOlP.PlQlRlSlTlU",
"lV.olWlXlYlZl0l1l2l3l4l5l6l7l8l9m.m.m#b9mambmcmdmemfmgmhmimjmkml"};
