/* XPM */
static char *nx48[]={
"48 48 810 2",
"Qt c None",
"#J c #11385d",
"fW c #122c44",
"gU c #122d46",
"fG c #132f48",
"fY c #13304a",
"gH c #13385b",
"#1 c #133a5e",
"ge c #142f47",
"fX c #142f49",
"gf c #143049",
"fm c #143149",
"gg c #14314b",
"d0 c #14314c",
"cQ c #143451",
"ag c #143b5f",
"fF c #15324a",
"db c #15334e",
"eh c #15334f",
"dB c #153450",
"cu c #153655",
"as c #153b5d",
"#U c #153b5f",
"d1 c #163450",
"cT c #163855",
"c. c #163859",
"a7 c #163b5c",
"aR c #163c5e",
"dc c #173654",
"dC c #173755",
"gJ c #173857",
"cw c #173a58",
"bL c #173a5a",
"bR c #173a5c",
"#V c #173b5d",
"ai c #173c5e",
"bw c #173c5f",
"#3 c #173d5f",
"#L c #173d61",
"eg c #18354f",
"cR c #183957",
"dd c #183958",
"dD c #183a59",
"df c #183a5a",
"cv c #183b5a",
"ca c #183b5b",
"go c #183c5c",
"bS c #183d5d",
"aa c #183d5e",
"bc c #183d60",
"aI c #183e60",
"#K c #183e62",
"cS c #193b5b",
"de c #193c5c",
"b3 c #193c5d",
"c# c #193d5d",
"bz c #193d5e",
"c2 c #193d5f",
"be c #193e5e",
"aq c #193e5f",
"bp c #193e60",
"gI c #1a3d5e",
"b2 c #1a3e5f",
"bK c #1a3e60",
"bJ c #1a3f61",
"bx c #1a3f62",
"aA c #1a4062",
"#2 c #1a4063",
"#M c #1a4065",
"cl c #1b3f61",
"by c #1b4062",
"bd c #1b4063",
"ck c #1b4163",
"ah c #1b4164",
"aB c #1b4265",
"fV c #1c3c56",
"dA c #1c3f5b",
"bq c #1c4164",
"g2 c #1d4c76",
"cG c #1e476c",
"g8 c #1f486d",
"gK c #1f4f79",
"b4 c #204361",
"fn c #204f78",
"bM c #214468",
"g7 c #214d73",
"fH c #21537f",
"gp c #215380",
"g6 c #224e76",
"g5 c #225078",
"f6 c #225583",
"d9 c #225684",
"cm c #234564",
"#T c #23486b",
"aJ c #234a6f",
"cF c #234f78",
"g4 c #235079",
"g3 c #23517a",
"et c #235684",
"e9 c #235685",
"bQ c #244565",
"cH c #244768",
"fl c #244861",
"e1 c #245175",
"dP c #245582",
"hj c #245987",
"gh c #245988",
"bv c #254868",
"a# c #25496c",
"bb c #254a6b",
"dq c #255681",
"#W c #25659f",
"ap c #264a6c",
"aY c #264a6d",
"#4 c #284e74",
"fE c #28516c",
"c3 c #285b87",
"bT c #28659a",
"bA c #29679c",
"bf c #2a689e",
"aZ c #2a699f",
"ab c #2a69a0",
"eC c #2c4860",
"e0 c #2c546d",
"aj c #2d557c",
"ds c #2d6897",
"ct c #2e5674",
"fk c #2f5972",
"b9 c #2f597b",
"aS c #315982",
"dK c #325e78",
"dl c #325f7a",
"eG c #33607b",
"em c #33617c",
"c4 c #3374a8",
"en c #345b72",
"jh c #34627d",
"eZ c #34637e",
"g9 c #34648e",
"dZ c #34678a",
"d5 c #35637f",
"dk c #356480",
"cP c #366384",
"dJ c #366582",
"hC c #366783",
"dS c #366d97",
"eB c #375b76",
"eH c #375e79",
"hY c #376884",
"eF c #376885",
"hb c #376986",
"fj c #386a87",
"jJ c #396681",
"cx c #396f9e",
"ea c #397cad",
"gT c #3a6b8c",
"ih c #3a6d8b",
"gO c #3a6e8c",
"cZ c #3a6e8d",
"iT c #3b6f8e",
"jg c #3b708f",
"dg c #3c5c76",
"dE c #3c5c77",
"jI c #3c6c87",
"iH c #3c7292",
"ju c #3d6a84",
"jt c #3d6c86",
"hi c #3d7196",
"i3 c #3d7392",
"el c #3d7393",
"eY c #3d7494",
"da c #3d769a",
"hc c #3e677f",
"dm c #3e6881",
"gP c #3e6c86",
"c0 c #3e7697",
"jK c #3f6880",
"cb c #4077a5",
"jf c #40799a",
"gw c #40799b",
"dr c #408fcd",
"#I c #416282",
"js c #416f8b",
"cY c #417a9c",
"gA c #417ba1",
"at c #426b99",
"ii c #426c85",
"iV c #427c9f",
"fD c #427ea1",
"gG c #436281",
"#0 c #436383",
"iW c #437b9c",
"gv c #437fa2",
"dI c #4380a3",
"dR c #438dc2",
"af c #446484",
"jv c #446e85",
"e2 c #456682",
"eE c #4582a6",
"hX c #4582a7",
"iU c #4583a8",
"dQ c #4585bb",
"a8 c #46709e",
"dn c #4684a8",
"dt c #47779a",
"cD c #4786ab",
"fi c #4787ac",
"ha c #4787ad",
"dL c #486c82",
"g1 c #487094",
"gx c #4888ae",
"iG c #4889af",
"fo c #496b89",
"ji c #496d83",
"it c #4989b0",
"iS c #498bb1",
"gd c #498bb4",
"jL c #4a6e82",
"dN c #4a8bb2",
"ig c #4a8cb3",
"iu c #4a8db4",
"gR c #4a8db6",
"fC c #4b8eb6",
"gb c #4b8fb7",
"ex c #4b93c2",
"gq c #4c7daa",
"cX c #4c90b8",
"fI c #4d7291",
"c5 c #4d7694",
"is c #4d92ba",
"gc c #4d92bb",
"hD c #4e7286",
"f7 c #4e80ae",
"eu c #4e81af",
"eO c #4e82b0",
"cO c #4e93bc",
"do c #4e94bd",
"c1 c #4e94be",
"hk c #4f7393",
"jH c #4f7991",
"gL c #4f7ea8",
"f. c #4f82b1",
"fv c #4f83b2",
"dO c #4f95bf",
"cC c #4f96bf",
"fU c #4f96c1",
"b5 c #507089",
"i4 c #50778e",
"hI c #508fb7",
"dz c #5097c1",
"fc c #509ac6",
"fZ c #517798",
"e. c #5180ab",
"cE c #5199c3",
"dy c #5199c4",
"gV c #52799a",
"je c #5288a8",
"d# c #529bc6",
"fT c #529bc7",
"cs c #529cc7",
"hZ c #53758a",
"gi c #537a9c",
"hf c #5385a5",
"ef c #539dc8",
"dY c #539dc9",
"gB c #547b9d",
"hJ c #548eb8",
"iR c #5492b7",
"eR c #5497c4",
"cj c #549eca",
"dX c #549fcb",
"ez c #549fcc",
"ci c #54a0cc",
"d6 c #557587",
"ir c #5595bb",
"b0 c #55a0cd",
"hg c #55a1ce",
"hy c #568dbd",
"iF c #56a2cf",
"ee c #56a3d0",
"b1 c #56a4d1",
"gQ c #57829c",
"e8 c #57a4d2",
"eT c #57a5d3",
"bU c #5881a5",
"aC c #5883b6",
"jr c #58849e",
"dj c #58a6d4",
"bH c #58a6d5",
"cN c #58a7d6",
"br c #5984b6",
"hx c #5992c4",
"kN c #59a8d6",
"bI c #59a8d7",
"eS c #59a9d8",
"bN c #5a80b1",
"bB c #5a85aa",
"#X c #5a87af",
"dH c #5aaad9",
"eA c #5aaada",
"bm c #5aabdb",
"hK c #5b7992",
"hw c #5b95c9",
"fu c #5bacdc",
"bn c #5baddd",
"eI c #5c6164",
"bg c #5c87ac",
"#N c #5c88bc",
"hr c #5c99cf",
"eb c #5caad9",
"ey c #5caddd",
"ed c #5caede",
"a6 c #5cafdf",
"a0 c #5d88ae",
"ac c #5d89af",
"hv c #5d98cc",
"hu c #5d99cd",
"hs c #5d99cf",
"h5 c #5d9bbe",
"fe c #5dafe0",
".# c #5db0e1",
"ht c #5e99ce",
".a c #5eb0e1",
".b c #5eb1e1",
"d2 c #5f7d95",
"cU c #5f8db3",
".c c #5fb1e1",
"fd c #60b1e1",
"gy c #60b2e2",
"gS c #61b2e2",
"fA c #62b0df",
"gz c #62b2e2",
"ew c #638aa7",
"iv c #63b0dc",
"dW c #63b3e2",
"jM c #647e8e",
"e# c #648297",
"ec c #64b3e2",
"ff c #65b4e3",
"b8 c #66b2e1",
"fB c #66b4e3",
"#F c #678cae",
"#5 c #6792c8",
"aK c #6793ca",
"dU c #67b5e3",
"d. c #68b5e3",
"dT c #68b6e3",
"e3 c #696867",
"hh c #69b6e3",
"dV c #6ab6e3",
"eo c #6d8491",
"jG c #6d8d9f",
"i2 c #6eb6e1",
"eU c #6eb8e4",
"hz c #6f9dc5",
"fp c #706f6e",
"jw c #708a9b",
"ak c #7199cc",
"ek c #71bae5",
"cn c #7290a7",
"eX c #72bae5",
"cr c #73bbe5",
"gr c #747577",
"aT c #759aca",
"fh c #76bce6",
"fJ c #777675",
"f8 c #77787b",
"ei c #7794ab",
"fO c #797a7d",
"fg c #79bee6",
"f# c #7a7a7c",
"fw c #7a7b7e",
"iw c #7aadca",
"dx c #7abee6",
"eP c #7b7878",
"f0 c #7c7b7a",
"iX c #7c9aad",
"ev c #7d7977",
"bs c #7d96b9",
"#v c #7d9fc9",
"a9 c #7d9fcd",
"gW c #7e7d7d",
"gC c #7f7f7f",
"h6 c #7fc1e7",
"bV c #807e7d",
"gj c #807e7e",
"hl c #808182",
"au c #80a2cd",
"jq c #80a8bf",
"fS c #80b0ce",
"eV c #80b3d2",
"ch c #81bfe3",
"du c #81c1e8",
"iI c #8295a0",
"aD c #83a0c5",
"b6 c #83a4be",
"bC c #848382",
"#O c #84a0c5",
"fz c #84a8c2",
"#E c #85acd4",
"gu c #85c4e8",
"dv c #87c4e9",
"bh c #888685",
"#G c #888787",
"cB c #88c5e9",
"#6 c #899cb6",
"a1 c #8a8887",
"#o c #8a8c8f",
"jN c #8a9ba5",
"jj c #8a9da8",
"ad c #8b8988",
"#Y c #8b8989",
"h7 c #8bb9d5",
"b. c #8c9095",
"aL c #8c9cb1",
"dw c #8cc7ea",
"hd c #8d9ba2",
"cM c #8dc7ea",
"d4 c #8dc8ea",
"dM c #8e9ca5",
"eW c #8ebdda",
"aU c #8f97a2",
"kc c #8f9da5",
"bO c #8fa0b8",
"#u c #8fa8c9",
"eD c #8fb0c7",
"cW c #8fc8ea",
"al c #9098a4",
"kd c #909da6",
"#w c #91969c",
"kb c #919ea6",
"#r c #91a6c0",
"ke c #92a2aa",
"#C c #92a7c1",
"cc c #92b6cf",
"di c #92caeb",
"aE c #939598",
"#h c #939697",
"av c #93969a",
"#s c #93a8c2",
"ix c #93b0c1",
"#P c #949596",
"jd c #94a8b5",
"#t c #94a8c1",
"cI c #94b4ca",
"b7 c #94c3e3",
"aM c #959494",
"#7 c #959595",
"kf c #95a6af",
"#D c #95a9c1",
"am c #969696",
".d c #969798",
"hH c #96a2ab",
"ka c #96a3aa",
"jO c #96a7b0",
"iQ c #96acb8",
"dG c #96ccec",
"aV c #979898",
"#B c #97abc5",
"ga c #97cbea",
"iq c #98adb9",
"iE c #98cdec",
"d7 c #9aa3a8",
"kI c #9aaab4",
"kJ c #9aacb5",
"kg c #9aacb6",
"#g c #9b9fa5",
"hL c #9ba5ab",
"kH c #9baab3",
"h8 c #9bafba",
"bt c #9c9fa4",
"jF c #9cabb4",
"jk c #9caeb7",
"k# c #9da9b1",
"kG c #9dacb5",
"gM c #9dadb7",
"jP c #9dafb9",
"jn c #9e9fa0",
"ij c #9fa7ab",
"kh c #9fb2be",
"hB c #9fd0ed",
"ep c #a0a7ab",
"eQ c #a0afb9",
"kK c #a0b3be",
"h# c #a0d1ed",
"#x c #a1a3a5",
"he c #a1a4a7",
"hE c #a1a9ac",
"#q c #a1b3cd",
"dF c #a1c4d9",
"h4 c #a2b0b7",
"kF c #a2b0b9",
"cg c #a2d1ec",
"c9 c #a2d2ee",
"#n c #a3a8af",
"jl c #a3b5c0",
"jQ c #a3b6c2",
"ki c #a4b7c3",
"h. c #a4c7df",
"eJ c #a5abb0",
"iY c #a5b8c2",
"kL c #a5bac7",
"hq c #a5c5e4",
"b# c #a6a9ae",
"k. c #a6b2b9",
"h9 c #a6b4bd",
"c6 c #a6d4ef",
"eq c #a7aeb3",
"d8 c #a7afb4",
"jR c #a7bbc7",
"kj c #a7bcc9",
"kM c #a7bdca",
"hW c #a7d4ef",
"h0 c #a8adb0",
"kE c #a8b6be",
"jm c #a8bbc8",
"cA c #a8d5ef",
".T c #a9adb0",
"ej c #a9d5ef",
"aw c #aaacae",
".U c #aaaeb2",
".V c #aaafb2",
"eK c #aab2b6",
"iZ c #aabec9",
"hG c #abafb1",
".W c #abafb2",
".X c #abafb3",
"iy c #abbdc7",
".1 c #acafb1",
"hF c #acafb2",
".Y c #acb0b3",
".S c #acb3b8",
"i. c #acbcc6",
"dh c #acd2ea",
"cq c #acd6f0",
".Z c #adb0b3",
"cV c #add7f0",
"#a c #aeb0b2",
".0 c #aeb1b4",
"i5 c #aeb2b5",
"e4 c #aeb6bb",
"er c #aeb6bc",
"hM c #aebec6",
"iz c #aec2cc",
"gN c #aed6ef",
"j9 c #afbbc2",
"kD c #afbdc5",
".e c #afc5d3",
"eL c #b0b9bf",
"i# c #b0c1cb",
"cd c #b0c6d3",
".5 c #b1b3b5",
"iJ c #b1b4b7",
"jE c #b1bbc1",
".f c #b1c6d3",
".6 c #b2b5b6",
"#Q c #b2b5b8",
"c7 c #b2daf1",
".7 c #b3b5b7",
"ik c #b3b6b9",
"h3 c #b3b9bc",
"ia c #b3c6d0",
".g c #b3c8d5",
"cy c #b3d8ef",
"## c #b4b4b6",
"f9 c #b4b5b6",
".8 c #b4b5b7",
".9 c #b4b6b7",
"e5 c #b4bdc3",
"jc c #b4bec3",
"bP c #b4bfd0",
"hN c #b4c3cd",
"cf c #b4d9ef",
"#. c #b5b6b7",
"h1 c #b5b9bb",
"gs c #b5bdc3",
"#b c #b5bec7",
".h c #b5cad6",
"hA c #b5d7ec",
".4 c #b6b8ba",
"h2 c #b6babd",
"eM c #b6c0c6",
"hO c #b6c7d2",
"d3 c #b6dbf1",
"ip c #b7bec1",
"fb c #b7c4ce",
"kC c #b7c5cd",
".i c #b7ccd7",
"c8 c #b7dcf2",
"i6 c #b8bcbe",
"iP c #b8bfc4",
"fq c #b8c1c7",
"j8 c #b8c4cc",
"hP c #b8c9d4",
".R c #b8cad5",
"gt c #b8d9eb",
"fa c #b9bdc0",
"#c c #b9bdc5",
"#f c #b9bec6",
"e6 c #b9c3c9",
"hm c #b9c8d0",
"fP c #bab9b9",
"il c #babec0",
"#l c #babfc6",
".2 c #bac1c6",
"bu c #bac7db",
".j c #bacdd9",
"co c #bad4e6",
"cz c #baddf2",
"fx c #bbbbbb",
"#m c #bbbec5",
"j0 c #bbbfc2",
"#d c #bbbfc6",
"hn c #bbcbd4",
"#e c #bcc0c6",
"#k c #bcc0c7",
"fr c #bcc7cd",
"hp c #bcced9",
"cL c #bcdef3",
"ho c #bdcdd7",
".k c #bdcfda",
"jZ c #bec1c3",
"j1 c #bec2c4",
"io c #bec4c7",
"e7 c #bec9cf",
"g# c #bed4e2",
"im c #bfc3c6",
"fK c #bfcad0",
"kB c #bfccd3",
".l c #bfd1db",
"ce c #bfdef1",
"in c #c0c6c9",
"jb c #c0c9ce",
"gX c #c0cfd7",
"gZ c #c0d1db",
"jx c #c1c5c8",
"iO c #c1c9cd",
"fs c #c1ccd2",
"ba c #c1cee2",
"i7 c #c2c6c9",
"iK c #c2c7ca",
"j7 c #c2ced4",
"gY c #c2d2db",
".m c #c2d3dd",
"#8 c #c3c6ca",
"jY c #c3c7c7",
"fL c #c3ced5",
"ft c #c3cfd8",
"gE c #c3d4dd",
"fM c #c4d1d9",
"#S c #c4d1e8",
"a. c #c4d2e7",
"az c #c4d2e8",
".n c #c4d5de",
"fR c #c5c6c6",
"kA c #c5d2da",
"aG c #c5d3e9",
"gD c #c5d5de",
"jD c #c6d0d7",
"f1 c #c6d1d8",
"f2 c #c6d3db",
"gn c #c6d6df",
"hV c #c6e1f3",
"cp c #c6e3f4",
"iL c #c7cdd1",
"gk c #c7d3dc",
"fN c #c7d4dc",
"f3 c #c7d5dd",
"aP c #c7d5ec",
"f4 c #c7d6de",
".o c #c7d7e0",
"cJ c #c7e4f5",
"kr c #c8cccf",
"iN c #c8cfd3",
"aX c #c8d5ec",
"gl c #c8d6de",
"gm c #c8d6df",
"cK c #c8e4f5",
"i8 c #c9cfd3",
"kq c #cacdd0",
"ks c #caced2",
"ja c #cad2d8",
"j6 c #cad6dc",
".p c #cad9e2",
"aN c #cbccce",
"iM c #cbd1d5",
"#i c #cbd2d6",
"#A c #cbd8ed",
"#Z c #ccd9ed",
"#H c #ccd9ee",
"jX c #cdcfd1",
"kt c #cdd3d6",
"kz c #cdd9e0",
"ae c #cdd9ed",
"aQ c #cdd9ee",
"#p c #cdd9ef",
".q c #cddbe3",
"kp c #ced1d3",
"bo c #cedaee",
"i9 c #cfd6d9",
"j# c #cfd8dc",
"jC c #cfd8de",
"dp c #cfdaee",
"es c #cfdbee",
"eN c #cfdbef",
".r c #cfdce4",
"g. c #d0d4d6",
"jy c #d0d7da",
"f5 c #d0dbef",
"ku c #d1d8db",
"j5 c #d1dce3",
"gF c #d1dcef",
"j. c #d2d9dd",
"ky c #d2dde4",
".s c #d2dee6",
"iD c #d2e2eb",
"bZ c #d3d8db",
"if c #d3e0e9",
"bY c #d4d8db",
"g0 c #d4def1",
"fQ c #d5d6d7",
"ko c #d5d8d9",
"aW c #d5d9e0",
"jz c #d5dce0",
"jB c #d5dee4",
".t c #d5e0e8",
"fy c #d6d7d7",
"bX c #d6d9dd",
"jA c #d6dfe4",
"hU c #d6e1e7",
"kx c #d6e1e8",
"j2 c #d7e0e5",
"j4 c #d7e1e6",
"jW c #d8dadb",
"kw c #d8e2e8",
".u c #d8e2ea",
"an c #d9dddf",
"j3 c #d9e2e7",
"bW c #dadee0",
"kv c #dae2e8",
".v c #dbe5eb",
"kn c #dde0e1",
".w c #dde7ec",
"#y c #dee5ea",
"bG c #dfe4e7",
"bF c #e0e4e8",
".x c #e0e9ee",
".3 c #e2e5e8",
"bE c #e2e6e8",
".y c #e2ebef",
"jV c #e3e4e6",
".z c #e5ecf1",
"bD c #e6e9ea",
"hT c #e7e8e8",
"km c #e7e8e9",
"bl c #e8ebef",
"#j c #e8ecf0",
".A c #e8eef2",
"#z c #e8eef5",
"bk c #e9edef",
".B c #eaf0f3",
"#R c #eaf0f7",
"ie c #ebecec",
"bj c #ebeff0",
"#9 c #ebf1f7",
"jp c #ecedee",
"i1 c #edeeef",
"kl c #edeff1",
"aO c #edeff4",
".C c #edf1f5",
"ao c #edf2f9",
"bi c #eef1f3",
"aF c #eef2f8",
"ay c #eef3fa",
"a5 c #eff3f5",
".D c #eff3f6",
"iC c #f0f1f1",
"ax c #f0f3f4",
"hS c #f1f1f1",
"a4 c #f1f5f6",
".E c #f1f5f7",
"jU c #f3f4f5",
"a3 c #f3f6f8",
".F c #f3f7f8",
"id c #f4f4f4",
"jo c #f4f5f6",
"i0 c #f5f6f6",
"a2 c #f5f7f8",
".G c #f5f8f9",
"aH c #f5f8fa",
"iB c #f7f7f7",
"hR c #f7f8f8",
".H c #f7f9fa",
"kk c #f8f9fa",
".I c #f8fafb",
"ar c #f8fafc",
"ic c #f9fafa",
"jT c #f9fafb",
".J c #fafbfc",
"hQ c #fbfbfb",
"iA c #fbfcfc",
".K c #fbfcfd",
"jS c #fcfdfd",
".L c #fcfdfe",
"ib c #fdfdfd",
".M c #fdfefe",
".N c #fefefe",
".O c #fefeff",
".Q c #feffff",
".P c #ffffff",
"QtQtQtQtQtQtQtQtQtQtQtQtQtQtQtQtQtQtQtQtQtQtQtQtQtQtQtQtQtQtQtQtQtQtQtQtQtQtQtQtQtQtQtQtQtQtQtQt",
"QtQt.#.#.#.#.#.#.#.#.#.#.#.#.#.#.#.#.#.#.#.#.#.#.#.#.#.#.a.a.#.a.a.b.c.a.#.#.#.#.b.#.#.#.#.#QtQt",
"QtQt.#.#.#.#.#.#.#.#.#.#.#.#.#.#.#.#.#.#.#.#.#.#.#.#.#.#.#.#.#.#.#.#.#.#.#.#.#.#.#.#.#.#.#.#QtQt",
"QtQt.#.#.d.d.d.d.d.d.d.d.d.d.d.d.d.d.d.d.d.d.d.d.d.d.d.d.d.d.d.d.d.d.d.d.d.d.d.d.d.d.d.d.#.#QtQt",
"QtQt.#.#.d.e.f.g.h.i.j.k.l.m.n.o.p.q.r.s.t.u.v.w.x.y.z.A.B.C.D.E.F.G.H.I.J.K.L.M.N.O.P.P.#.#QtQt",
"QtQt.#.#.d.f.g.h.i.j.k.l.m.n.o.p.q.r.s.t.u.v.w.x.y.z.A.B.C.D.E.F.G.H.I.J.K.L.M.N.O.P.P.P.#.#QtQt",
"QtQt.#.#.d.g.h.i.j.k.l.m.n.o.p.q.r.s.t.u.v.w.x.y.z.A.B.C.D.E.F.G.H.I.J.K.L.M.N.O.P.P.P.Q.#.#QtQt",
"QtQt.#.#.d.h.i.R.S.T.U.V.W.X.Y.Y.Z.0.1.2.w.x.y.z.A.B.C.3.4.5.6.7.7.7.8.9.9#.###a.P.P.Q.N.#.#QtQt",
"QtQt.#.#.d.i.j#b#c#d#d#d#d#d#d#d#e#f#g#h#i.y.z.A.B.C#j#k#l#d#d#d#d#d#d#d#d#m#n#o.P.Q.N.M.#.#QtQt",
"QtQt.#.#.d.j.k#p#q#r#s#s#s#s#s#s#t#u#v#w#x#y.A.B.C.D#z#A#B#C#s#s#s#s#s#s#D#E#F#G.Q.N.M.L.#.#QtQt",
"QtQt.#.#.d.k.l#H#I#J#K#K#K#K#K#K#L#M#N#O#P#Q.B.C.D.E#R#S#T#U#K#K#K#K#K#K#V#W#X#Y.N.M.L.K.#.#QtQt",
"QtQt.#.#.d.l.m#Z#0#1#2#2#2#2#2#2#2#3#4#5#6#7#8.D.E.F#9a.a##L#2#2#2#2#2#2aaabacad.M.L.K.J.#.#QtQt",
"QtQt.#.#.d.m.naeafagahahahahahahahahaiajakalaman.F.Gaoa.ap#Kahahahahahahaqabacad.L.K.Jar.#.#QtQt",
"QtQt.#.#.d.n.oaeafagahahahahahahahahahasatauavawax.Hayazap#Kahahahahahahaqabacad.K.Jar.H.#.#QtQt",
"QtQt.#.#.d.o.paeafagahahahahahahahahahaAaBaCaDaE.8.IaFaGap#Kahahahahahahaqabacad.Jar.HaH.#.#QtQt",
"QtQt.#.#.d.p.qaeafagahahahahahahahahahahaIaJaKaLaMaNaOaPap#Kahahahahahahaqabacadar.HaH.F.#.#QtQt",
"QtQt.#.#.d.q.raQafagahahahahahahahahahahahaRaSaTaUaVaWaXaY#KahahahahahahaqaZa0a1a2a3a4a5a6a6QtQt",
"QtQt.#.#.d.r.saQafagahahahahahahahahahahahaha7a8a9b.b#babbbcbdbdahahahahbebfbgbhbibjbkblbmbnQtQt",
"QtQt.#.#.d.s.tboafagahahahahahahahahahahbdbdbpbqbrbsbtbubvbwbxbybdahahbdbzbAbBbCbDbEbFbGbHbIQtQt",
"QtQt.#.#.d.t.uboafagahahahahahahahahahbdaAbJbKbLbMbNbObPbQbRbKbJbybdbdbdbSbTbUbVbWbXbYbZb0b1QtQt",
"QtQt.#.#.d.u.vboafagahahahahahahahahbdaAbJb2b3b4b5b6b7b8b9c.c#bKbxbybdbxcacbcccdcecfcgchcicjQtQt",
"QtQt.#.#.d.v.wboafagahahahahahahahckclbJb2cmcncocpcqcrcsctcucvbzbKbxbxbKcwcxcyczcAcB.ccCcDcEQtQt",
"QtQt.#.#.d.w.xboafagahahahahahahbxcFcGb3cHcIcJcKcLcMcNcOcPcQcRcSbzbKbKc#cTcUcVcWbncXcYcZc0c1QtQt",
"QtQt.#.#.d.x.yboafagahahahahahahc2c3c4b3c5c6c7c8c9d.d#c1dadbdcdddec#b3dfdgdhdidjcYdkdldmdndoQtQt",
"QtQt.#.#.d.y.zdpafagahahahahahahaqdqdrdsdtdudvdwdxbIdycsdzdAdBdCdddDdDdEdFdGdHdIdJdKdLdMdNdOQtQt",
"QtQt.#.#.d.z.AdpafagahahahahahahaqdPdQdRdSdTdUdVdWbIdXdXdYdZd0d1dcdCd2d3d4b1cYd5dKd6d7d8cXcEQtQt",
"QtQt.#.#.d.A.Bdpafagahahahahahahaqd9e.e#eaebdWececedeedYefc1egd0eheiejekdOelemeneoepeqercCcjQtQt",
"QtQt.#.#.d.B.Cesafagahahahahahahaqeteuevewex.beda6eybHcjezeAeBeCeDdidHeEeFeGeHeIeJeKeLeMdYb1QtQt",
"QtQt.#.#.d.C.DeNafagahahahahahahaqeteOePeQeReSeTbHeyeydjeSeUeVeWeXdoeYeZe0e1e2e3e4e5e6e7e8bIQtQt",
"QtQt.#.#.d.D.EeNafagahahahahahahaqe9f.f#fafbfce8dHfddWfefffgfhdHfifjfkflfmfnfofpfqfrfsfteSfuQtQt",
"QtQt.#.#.d.E.FeNafagahahahahahahaqe9fvfwfxfyfzfAd.fB.a.#dTdWb1fCfDfEfFfGfGfHfIfJfKfLfMfNbnedQtQt",
"QtQt.#.#.d.F.GeNafagahahahahahahaqetf.fOfPfQfRfSdxbmfTdXfubHcsfTfUfVfWfXfYetfZf0f1f2f3f4a6feQtQt",
"QtQt.#.#.d.G.Hf5afagahahahahahahbzf6f7f8f9g.g#gaeygbfigceTeAbHbmfegdgegfggghgigjgkglgmgnfe.#QtQt",
"QtQt.#.#.d.H.If5afagahahahahbdbygogpgqgrgsgtgudXgvgwgxcEbHa6fe.agygzgAfXggghgBgCf2f4gDgE.#.#QtQt",
"QtQt.#.#.d.I.JgFgGgHbKbKbKb2gIb3gJgKgLgMgNcrcXgOgPgQgRb0b1eSfegSgSecd.gTgUetgVgWgXgYgYgZfe.#QtQt",
"QtQt.#.#.d.J.Kg0g1g2g3g3g4g5g6g7g8g9h.h#gShahbhchdhehfb0dXhgcN.#dWfBhhhhhihjhkhlhmhnhohpa6feQtQt",
"QtQt.#.#.d.K.LhqhrhshthuhvhwhxhyhzhAhBbndIhChDhEhFhGhHhId#dyd#eT.bd.hhffdUhJhKhLhMhNhOhPeya6QtQt",
"QtQt.#.#.d.L.M.N.O.P.NhQhRhShThUhVhWgShXhYhZh0#Qh1h2h3h4h5c1dodzhgdHed.ceUh6h7h8h9i.i#iabnedQtQt",
"QtQt.#.#.d.M.N.O.P.Nibicidieifczc9eUigihiiijikiliminioipiqiriscXdNitiucsa6dTdWiviwixiyizbmedQtQt",
"QtQt.#.#.d.N.O.P.P.NiAiBiCiDiEeXiFiGiHhbiIiJiliKiLiMiNiOiPiQiRiSdIeYiTeYgviUgviViWiXiYiZdHeyQtQt",
"QtQt.#.#.d.O.P.P.P.MhQi0i1i2d#iUi3fjhCi4i5i6i7i8i9j.j#jajbjcjdjejfjghbdkjheGdKjijjjkjljmdHeyQtQt",
"QtQtfd.bjn.P.P.P.Qibicjojpjqjrjsjtjujvjwi6jxi8jyjzjAjBjCjDfrjEjFjGjHjIjJjKjLjMjNjOjPjQjReAeyQtQt",
"QtQt.#.#.d.P.P.Q.NjSjTjUjpjVjWjXjYjZj0j1iKi8jyjzj2j3j4j5j6j7j8j9k.k#kakbkckdkekfkgkhkikjfuedQtQt",
"QtQt.#.#.d.P.Q.N.M.Kkkjoklkmknkokpkqkrksktkujzj2kvkwkxkykzkAkBkCkDkEkFkGkHkIkJjPkKjQkLkMbna6QtQt",
"QtQt.#.#.#.#.#.#.#fea6eyeAkNe8hgdXdYcjezeebHeSfuedfefea6eyfueSbHeeb0dYcsfTcscjhgb1cNdHfuedfeQtQt",
"QtQt.#.#.#.#.#.#.#.#feedbneAbIbHdjeTeTbHbIeAbnedfefe.#fefeedbnbmeScNdje8e8eTdjcNeSbmbnedfefeQtQt",
"QtQtQtQtQtQtQtQtQtQtQtQtQtQtQtQtQtQtQtQtQtQtQtQtQtQtQtQtQtQtQtQtQtQtQtQtQtQtQtQtQtQtQtQtQtQtQtQt",
"QtQtQtQtQtQtQtQtQtQtQtQtQtQtQtQtQtQtQtQtQtQtQtQtQtQtQtQtQtQtQtQtQtQtQtQtQtQtQtQtQtQtQtQtQtQtQtQt"};
